<?xml version="1.0" encoding="UTF-8"?>
<svg id="Layer_2" data-name="Layer 2" xmlns="http://www.w3.org/2000/svg" xmlns:xlink="http://www.w3.org/1999/xlink" viewBox="0 0 489.46 132.17">
  <defs>
    <style>
      .cls-1 {
        fill: url(#linear-gradient);
      }

      .cls-1, .cls-2, .cls-3 {
        stroke-width: 0px;
      }

      .cls-3 {
        fill: #fff;
      }
    </style>
    <linearGradient id="linear-gradient" x1="136.71" y1="-13.08" x2="37.14" y2="105.16" gradientUnits="userSpaceOnUse">
      <stop offset="0" stop-color="#f3d39f"/>
      <stop offset="1" stop-color="#f05252"/>
    </linearGradient>
  </defs>
  <g id="Layer_1-2" data-name="Layer 1">
    <g>
      <path id="Path_952" data-name="Path 952" class="cls-1" d="m70.03,0c-8.56,0-17.12.32-25.68.97C21.24,2.66,2.81,20.94.92,44.04.04,54.54-.21,65.09.18,75.62c.02.56.09,1.12.21,1.67.4,2.11,1.44,4.04,2.98,5.53,2.88,2.59,6.73,2.67,10.37,3.05,4.61.45,9.22.68,13.81.89,14.77.54,32.8.68,48.95.04,21.17-1.01,39.53-3.33,45.62-7.28-5.05-9.35-17.69-9.06-29.66-8.76-2.38.06-4.73.12-6.99.1-9.07.29-18.15.49-27.24.6-8.56.1-17.36.66-25.93-.08-11.13-.97-18.82-10.27-17.74-21.52.07-.71.18-1.42.33-2.12,4.16-20.06,41.68-18.79,66.66-29.4l-10.86,21.95c-32.88,3.68-46.07,5.7-53.03,13.89,3.09,3.11,8.83,3.29,12.9,3.46,5.91.29,11.87-.06,17.78-.31l51.21-1.91s13.05-.64,19.65,7.1c3.35,4.32,5.41,9.51,5.93,14.96.61,10.45-7.08,19.5-16.38,23.29-8.82,3.6-18.85,5.49-27.86,6.55-9.34,1.08-18.74,1.43-28.13,1.07-11.54-.39-24.01-.82-35.25-3.72-1.25-.32-2.48-.7-3.68-1.15-.62-.25-1.23-.47-1.83-.74-.76-.33-1.5-.7-2.25-1.09-4.7-2.52-7.94-7.11-8.72-12.39.22,2.33.62,4.63,1.22,6.9,5.1,19.48,22.02,33.56,42.1,35.04,17.1,1.3,34.26,1.3,51.36,0,23.12-1.68,41.56-19.96,43.45-43.07,1.13-14.68,1.13-29.42,0-44.09-1.89-23.1-20.33-41.38-43.45-43.06-8.56-.65-17.12-.97-25.68-.97Z"/>
      <path id="Path_953" data-name="Path 953" class="cls-3" d="m108.77,100.74c-8.84,3.6-18.85,5.49-27.86,6.55-9.34,1.07-18.75,1.43-28.14,1.07-11.53-.4-24.01-.84-35.24-3.74-1.25-.33-2.48-.7-3.69-1.14-.61-.24-1.23-.48-1.83-.75-.76-.34-1.51-.7-2.24-1.09-5.04-2.69-8.37-7.75-8.86-13.44v-.08c-.29-3.8-.51-7.6-.67-11.41.34,2.32,1.44,4.47,3.12,6.11,2.88,2.59,6.72,2.66,10.37,3.03,4.59.46,9.21.68,13.8.9,14.77.53,32.79.66,48.94.02,21.19-.99,39.53-3.32,45.62-7.27-6.04-11.21-23.03-8.57-36.64-8.66-9.08.29-18.16.48-27.25.59-8.57.11-17.36.66-25.93-.09-11.11-.97-18.83-10.26-17.73-21.51.07-.72.18-1.43.33-2.13,4.15-20.06,41.69-18.79,66.67-29.4l-10.88,21.95c-32.88,3.69-46.06,5.71-53.03,13.89,3.1,3.12,8.83,3.29,12.9,3.47,5.91.29,11.89-.07,17.78-.31l51.22-1.91s13.05-.64,19.65,7.1c3.36,4.31,5.42,9.5,5.93,14.94.62,10.46-7.07,19.51-16.37,23.29"/>
      <g id="Group_701" data-name="Group 701">
        <g id="Group_696" data-name="Group 696">
          <path id="Path_1209" data-name="Path 1209" class="cls-2" d="m258.93,102.2c-8.36,0-11.86-7.63-15.58-15.48-3.56-7.57-7.57-16.05-16.56-18.73,12.84-2.54,20.44-9.57,20.44-19.01,0-11.89-11.99-19.87-29.82-19.87h-30.97v1.4c6.29,3.27,4.61,23.72,4.48,74.02h13.45v-34.59h10.75c6.49,0,9.67,7.69,13.03,15.83,3.62,8.78,6.52,19.26,17.77,19.97,4.42.29,8.87-1.21,13.32-1.21v-2.32h-.32Zm-45.97-36.08h-8.58v-33.16h8.58c12.69,0,19.39,5.69,19.39,16.53s-6.71,16.63-19.39,16.63"/>
          <path id="Path_1210" data-name="Path 1210" class="cls-2" d="m315.09,32v1.4c5.86,0,4.61,20.82,4.48,71.12h13.45V26.29l-17.93,5.71Z"/>
          <path id="Path_1211" data-name="Path 1211" class="cls-2" d="m375.32,104.52h-15.42l-3.94-4.39-15.64-17.33-6.45-7.15,8.97-8.49,19.26-18.31,4.57,9.85-.66.34c-6-1.68-7.72.19-20.19,11.56l24.1,27.69,5.41,6.23Z"/>
          <path id="Path_1212" data-name="Path 1212" class="cls-2" d="m432.13,102.58c-3.02-.51-4.1-4.48-4.42-10.11,0-.1-.03-.19-.03-.29-.06-.95-.09-1.94-.13-2.96v-7.76c.03-2.58.03-5.25,0-7.92v-8.64c0-10.27-8.58-17.14-21.37-17.14-8.19.08-16.21,2.4-23.18,6.71l4.64,10.08c2.39-8.04,6.3-10.97,12.46-10.97,8.97,0,14.75,5.05,14.75,12.81v5.88c-22.41.58-36.88,8.52-36.88,20.22,0,8.04,6.68,13,17.49,13,7.12,0,14.01-2.56,19.39-7.22v6.29h17.33v-.06l-.06-1.94Zm-31.16-2.8c-6.39,0-9.76-3.21-9.76-9.28,0-9.09,8.62-14.72,23.66-15.52v19.78c-3.92,3.21-8.82,4.99-13.89,5.02"/>
          <path id="Path_1213" data-name="Path 1213" class="cls-2" d="m489.46,94.08v10.49h-51.32l-.29-.89v-.89l34.21-50.65h-19.88c-4.82,0-9.3,2.47-11.86,6.55h-.78v-9.86h48.84v1.14l-.29.48-34.31,50.77h22.24c5.19,0,10-2.71,12.69-7.15h.75Z"/>
          <path id="Path_1214" data-name="Path 1214" class="cls-2" d="m309.54,76.78v-.38c0-15.07-10.03-25.18-24.95-25.18-15.96,0-26.69,11.54-26.69,28.71,0,15.52,10.15,25.95,25.26,25.95,9.01.15,17.77-2.92,24.71-8.67l.28-.23-1.24-1.6-.28.16c-4.51,2.58-11.63,4.24-18.14,4.24-11.11,0-17.75-8.2-17.75-21.95v-1.06h38.81Zm-25.36-22.42c8.46,0,13.15,6.82,13.24,19.2l-26.56.74c.67-13.05,5.28-19.94,13.32-19.94"/>
        </g>
      </g>
    </g>
  </g>
</svg>